<?xml version="1.0" encoding="UTF-8" standalone="no"?>
<!-- Created with Inkscape (http://www.inkscape.org/) -->

<svg
   xmlns:dc="http://purl.org/dc/elements/1.1/"
   xmlns:cc="http://creativecommons.org/ns#"
   xmlns:rdf="http://www.w3.org/1999/02/22-rdf-syntax-ns#"
   xmlns:svg="http://www.w3.org/2000/svg"
   xmlns="http://www.w3.org/2000/svg"
   xmlns:sodipodi="http://sodipodi.sourceforge.net/DTD/sodipodi-0.dtd"
   xmlns:inkscape="http://www.inkscape.org/namespaces/inkscape"
   width="136.32623mm"
   height="136.34822mm"
   viewBox="0 0 136.32623 136.34822"
   version="1.1"
   id="svg5918"
   inkscape:version="0.92.2 (5c3e80d, 2017-08-06)"
   sodipodi:docname="settings.svg">
  <defs
     id="defs5912" />
  <sodipodi:namedview
     id="base"
     pagecolor="#ffffff"
     bordercolor="#666666"
     borderopacity="1.0"
     inkscape:pageopacity="0.0"
     inkscape:pageshadow="2"
     inkscape:zoom="0.7"
     inkscape:cx="371.56984"
     inkscape:cy="139.7891"
     inkscape:document-units="mm"
     inkscape:current-layer="layer1"
     showgrid="false"
     inkscape:window-width="1440"
     inkscape:window-height="848"
     inkscape:window-x="-8"
     inkscape:window-y="-8"
     inkscape:window-maximized="1" />
  <metadata
     id="metadata5915">
    <rdf:RDF>
      <cc:Work
         rdf:about="">
        <dc:format>image/svg+xml</dc:format>
        <dc:type
           rdf:resource="http://purl.org/dc/dcmitype/StillImage" />
        <dc:title></dc:title>
      </cc:Work>
    </rdf:RDF>
  </metadata>
  <g
     inkscape:label="Layer 1"
     inkscape:groupmode="layer"
     id="layer1"
     transform="translate(-34.851,-76.311774)">
    <circle
       style="opacity:1;vector-effect:none;fill:none;fill-opacity:1;stroke:#ffffff;stroke-width:28.01360512;stroke-linecap:butt;stroke-linejoin:miter;stroke-miterlimit:4;stroke-dasharray:none;stroke-dashoffset:0;stroke-opacity:1"
       id="path5922"
       cx="62.093029"
       cy="166.22131"
       r="40.845089"
       transform="rotate(-15)" />
    <path
       style="fill:#ffffff;fill-opacity:1;stroke-width:0.11194852"
       d="m 82.571765,93.68767 c 0,-0.0491 2.237747,-3.96594 4.972773,-8.70404 l 4.972773,-8.614736 10.459719,-0.02856 10.45971,-0.02856 4.99801,8.680726 c 2.74891,4.7744 4.99802,8.70407 4.99802,8.7326 0,0.0285 -9.19372,0.0519 -20.4305,0.0519 -11.236779,0 -20.430505,-0.0402 -20.430505,-0.0893 z"
       id="path6543"
       inkscape:connector-curvature="0" />
    <path
       style="fill:#ffffff;fill-opacity:1;stroke:none;stroke-width:0.11194907;stroke-opacity:1"
       d="m 153.80125,124.05736 c 0.0491,0 3.96594,2.23777 8.70404,4.97282 l 8.61474,4.97283 0.0286,10.45982 0.0286,10.45982 -8.68073,4.99806 c -4.77441,2.74893 -8.70408,4.99806 -8.7326,4.99806 -0.0285,0 -0.0519,-9.19381 -0.0519,-20.4307 0,-11.23689 0.0402,-20.43071 0.0893,-20.43071 z"
       id="path6543-1"
       inkscape:connector-curvature="0" />
    <path
       style="fill:#ffffff;fill-opacity:1;stroke:none;stroke-width:0.11194907;stroke-opacity:1"
       d="m 52.226897,124.05736 c -0.04912,0 -3.965938,2.23777 -8.704042,4.97282 l -8.614735,4.97283 -0.02856,10.45982 -0.02856,10.45982 8.680731,4.99806 c 4.774399,2.74893 8.704068,4.99806 8.732597,4.99806 0.02853,0 0.05187,-9.19381 0.05187,-20.4307 0,-11.23689 -0.04018,-20.43071 -0.0893,-20.43071 z"
       id="path6543-1-6"
       inkscape:connector-curvature="0" />
    <path
       style="fill:#ffffff;fill-opacity:1;stroke:none;stroke-width:0.11194907;stroke-opacity:1"
       d="m 82.588332,195.28402 c 0,0.0491 2.23777,3.96594 4.972823,8.70404 l 4.972822,8.61474 10.459823,0.0286 10.45982,0.0286 4.99806,-8.68073 c 2.74893,-4.77441 4.99806,-8.70407 4.99806,-8.7326 0,-0.0285 -9.19381,-0.0519 -20.4307,-0.0519 -11.236891,0 -20.430708,0.0402 -20.430708,0.0893 z"
       id="path6543-8"
       inkscape:connector-curvature="0" />
    <path
       style="fill:#ffffff;fill-opacity:1;stroke:none;stroke-width:0.11194907;stroke-opacity:1"
       d="m 52.636592,123.01886 c -0.03473,-0.0347 -1.222,-4.38669 -2.638371,-9.67101 L 47.423,103.74 l 7.376016,-7.416399 7.376016,-7.416411 9.672366,2.604041 c 5.319797,1.43222 9.688868,2.62054 9.709041,2.64072 0.02018,0.0202 -6.464331,6.537679 -14.410013,14.483359 -7.945678,7.94568 -14.475104,14.41828 -14.509834,14.38355 z"
       id="path6543-89"
       inkscape:connector-curvature="0" />
    <path
       style="fill:#ffffff;fill-opacity:1;stroke:none;stroke-width:0.11194907;stroke-opacity:1"
       d="m 124.48414,94.126133 c 0.0347,-0.0347 4.38668,-1.222 9.671,-2.63837 l 9.60786,-2.575223 7.41641,7.376003 7.41642,7.376007 -2.60404,9.67237 c -1.43223,5.31979 -2.62055,9.68887 -2.64072,9.70903 -0.0202,0.0202 -6.5377,-6.46431 -14.48339,-14.40999 -7.94568,-7.94568 -14.41826,-14.475107 -14.38354,-14.509827 z"
       id="path6543-1-8"
       inkscape:connector-curvature="0" />
    <path
       style="fill:#ffffff;fill-opacity:1;stroke:none;stroke-width:0.11194907;stroke-opacity:1"
       d="m 52.654592,165.95533 c -0.03473,0.0347 -1.222001,4.38668 -2.638371,9.671 l -2.575221,9.60785 7.376017,7.41641 7.376017,7.41641 9.672365,-2.60405 c 5.319797,-1.43222 9.688868,-2.62054 9.70904,-2.64071 0.02017,-0.0202 -6.464331,-6.53769 -14.410011,-14.48337 -7.945682,-7.94568 -14.475106,-14.41828 -14.509836,-14.38354 z"
       id="path6543-1-6-7"
       inkscape:connector-curvature="0" />
    <path
       style="fill:#ffffff;fill-opacity:1;stroke:none;stroke-width:0.11194907;stroke-opacity:1"
       d="m 124.49314,194.85241 c 0.0347,0.0347 4.38668,1.222 9.671,2.63837 l 9.60786,2.57522 7.41641,-7.376 7.41642,-7.37601 -2.60404,-9.67236 c -1.43223,-5.3198 -2.62054,-9.68887 -2.64072,-9.70904 -0.0202,-0.0202 -6.5377,6.46431 -14.48339,14.40999 -7.94567,7.94568 -14.41826,14.47512 -14.38354,14.50983 z"
       id="path6543-8-4"
       inkscape:connector-curvature="0" />
  </g>
</svg>
